<?xml version="1.0" encoding="utf-8"?>
<svg version="1.1" id="Layer_1"
xmlns="http://www.w3.org/2000/svg"
xmlns:xlink="http://www.w3.org/1999/xlink"
width="550px" height="400px"
xml:space="preserve">
<g id="PathID_1" transform="matrix(0.876179, 0, 0, 0.876179, 198.1, 193.05)" opacity="1">
<path style="fill:#0AB5E7;fill-opacity:1" d="M33.65 -11.4Q33.65 -8.6 32.55 -6.5Q31.5 -4.4 29.75 -3.05Q27.65 -1.4 25.1 -0.7Q22.6 0 18.75 0L3.85 0L3.85 -37.25L17 -37.25Q21.1 -37.25 23.2 -36.9Q25.3 -36.6 27.15 -35.6Q29.15 -34.5 30.15 -32.7Q31.15 -30.9 31.15 -28.55Q31.15 -25.85 29.75 -23.7Q28.4 -21.6 26 -20.6L26 -20.4Q29.45 -19.65 31.55 -17.4Q33.65 -15.2 33.65 -11.4M21.65 -26.7Q21.65 -27.6 21.15 -28.55Q20.7 -29.5 19.75 -29.95Q18.8 -30.35 17.55 -30.4L13.8 -30.45L13.2 -30.45L13.2 -22.55L14.35 -22.55L17.7 -22.6Q18.65 -22.65 19.65 -23.1Q20.8 -23.65 21.2 -24.55Q21.65 -25.5 21.65 -26.7M24 -11.55Q24 -13.25 23.3 -14.2Q22.6 -15.2 21.2 -15.7Q20.35 -16.05 18.85 -16.1L14.9 -16.15L13.2 -16.15L13.2 -6.8L13.65 -6.8L18.7 -6.85Q20.1 -6.9 21.55 -7.5Q22.8 -8.05 23.4 -9.1Q24 -10.2 24 -11.55" />
</g>
<g id="PathID_2" transform="matrix(0.876179, 0, 0, 0.876179, 198.1, 193.05)" opacity="1">
</g>
<g id="PathID_3" transform="matrix(0.876179, 0, 0, 0.876179, 228.85, 193.05)" opacity="1">
<path style="fill:#0AB5E7;fill-opacity:1" d="M12.1 0L3.35 0L3.35 -28.1L12.1 -28.1L12.1 0M12.35 -32.1L3.1 -32.1L3.1 -38.95L12.35 -38.95L12.35 -32.1" />
</g>
<g id="PathID_4" transform="matrix(0.876179, 0, 0, 0.876179, 228.85, 193.05)" opacity="1">
</g>
<g id="PathID_5" transform="matrix(0.876179, 0, 0, 0.876179, 242.35, 193.05)" opacity="1">
<path style="fill:#0AB5E7;fill-opacity:1" d="M11.9 0.75Q8.8 0.75 6.05 0.05Q3.3 -0.6 1.5 -1.5L1.5 -8.9L2.2 -8.9L3.65 -7.8Q4.45 -7.25 5.85 -6.65Q7.1 -6.05 8.6 -5.65Q10.15 -5.25 11.95 -5.25Q13.8 -5.25 15.2 -5.8Q16.65 -6.35 16.65 -7.6Q16.65 -8.6 15.95 -9.1Q15.3 -9.6 13.45 -10.05Q12.45 -10.3 10.9 -10.55Q9.4 -10.85 8.2 -11.25Q4.9 -12.25 3.25 -14.25Q1.6 -16.3 1.6 -19.55Q1.6 -21.45 2.45 -23.1Q3.3 -24.75 5 -26.05Q6.65 -27.35 9.1 -28.1Q11.6 -28.85 14.7 -28.85Q17.65 -28.85 20.1 -28.25Q22.6 -27.65 24.3 -26.85L24.3 -19.75L23.6 -19.75Q23.15 -20.1 22.15 -20.65Q21.2 -21.25 20.25 -21.7Q19.15 -22.2 17.8 -22.5Q16.45 -22.85 15 -22.85Q13.1 -22.85 11.8 -22.2Q10.5 -21.55 10.5 -20.45Q10.5 -19.5 11.15 -18.95Q11.8 -18.4 13.95 -17.9Q15.1 -17.6 16.55 -17.35Q18 -17.1 19.35 -16.65Q22.4 -15.65 23.95 -13.75Q25.55 -11.9 25.55 -8.75Q25.55 -6.8 24.6 -5Q23.7 -3.2 22 -2Q20.2 -0.65 17.75 0.05Q15.3 0.75 11.9 0.75" />
</g>
<g id="PathID_6" transform="matrix(0.876179, 0, 0, 0.876179, 242.35, 193.05)" opacity="1">
</g>
<g id="PathID_7" transform="matrix(0.876177, -0.00166549, 0.00166549, 0.876177, 274.15, 193.1)" opacity="1">
<path style="fill:#B5E4F4;fill-opacity:1" d="M35.65 0L30.7 0L30.7 -32.05L21 -10.25L18 -10.25L8.45 -32.05L8.45 0L3.8 0L3.8 -37.25L10.55 -37.25L19.8 -16.5L28.75 -37.25L35.65 -37.25L35.65 0" />
</g>
<g id="PathID_8" transform="matrix(0.876177, -0.00166549, 0.00166549, 0.876177, 274.15, 193.1)" opacity="1">
</g>
<g id="PathID_9" transform="matrix(0.876177, -0.00166549, 0.00166549, 0.876177, 308.7, 193.05)" opacity="1">
<path style="fill:#B5E4F4;fill-opacity:1" d="M19 -6.85L19 -14.55L14.75 -14.1Q12.2 -13.85 10.6 -13.4Q8.75 -12.8 7.5 -11.6Q6.3 -10.45 6.3 -8.35Q6.3 -5.95 7.65 -4.75Q9 -3.55 11.6 -3.55Q13.8 -3.55 15.6 -4.5Q17.4 -5.45 19 -6.85M19 -2.95L17.45 -1.75Q16.5 -1 15.6 -0.55Q14.35 0.1 13.15 0.45Q12 0.8 9.9 0.8Q8.2 0.8 6.65 0.15Q5.1 -0.5 3.9 -1.65Q2.8 -2.8 2.1 -4.5Q1.45 -6.2 1.45 -8.05Q1.45 -10.95 2.65 -13Q3.9 -15.05 6.55 -16.25Q8.9 -17.3 12.1 -17.7Q15.3 -18.15 19 -18.35L19 -19.25Q19 -20.9 18.5 -21.9Q18 -22.95 17.1 -23.5Q16.2 -24.1 14.9 -24.3Q13.6 -24.5 12.2 -24.5Q10.6 -24.5 8.4 -23.95Q6.2 -23.45 4 -22.55L3.75 -22.55L3.75 -27.3Q5.05 -27.7 7.45 -28.15Q9.9 -28.6 12.25 -28.6Q15.15 -28.6 17.1 -28.15Q19.1 -27.7 20.65 -26.5Q22.2 -25.35 22.95 -23.5Q23.7 -21.7 23.7 -19.1L23.7 0L19 0L19 -2.95" />
</g>
<g id="PathID_10" transform="matrix(0.876177, -0.00166549, 0.00166549, 0.876177, 308.7, 193.05)" opacity="1">
</g>
<g id="PathID_11" transform="matrix(0.876177, -0.00166549, 0.00166549, 0.876177, 332.2, 193)" opacity="1">
<path style="fill:#B5E4F4;fill-opacity:1" d="M25.35 0L20.65 0L20.65 -15.9Q20.65 -17.8 20.45 -19.45Q20.25 -21.15 19.75 -22.15Q19.15 -23.2 18.1 -23.7Q17.1 -24.25 15.35 -24.25Q13.6 -24.25 11.7 -23.3Q9.85 -22.35 8.1 -20.85L8.1 0L3.4 0L3.4 -27.95L8.1 -27.95L8.1 -24.85Q10.2 -26.7 12.25 -27.7Q14.3 -28.75 16.55 -28.75Q20.7 -28.75 23 -26Q25.35 -23.3 25.35 -18.15L25.35 0" />
</g>
<g id="PathID_12" transform="matrix(0.876177, -0.00166549, 0.00166549, 0.876177, 332.2, 193)" opacity="1">
</g>
<g id="PathID_13" transform="matrix(0.876177, -0.00166549, 0.00166549, 0.876177, 357.15, 192.95)" opacity="1">
<path style="fill:#B5E4F4;fill-opacity:1" d="M19 -6.85L19 -14.55L14.75 -14.1Q12.2 -13.85 10.6 -13.4Q8.75 -12.8 7.5 -11.6Q6.3 -10.45 6.3 -8.35Q6.3 -5.95 7.65 -4.75Q9 -3.55 11.6 -3.55Q13.8 -3.55 15.6 -4.5Q17.4 -5.45 19 -6.85M19 -2.95L17.45 -1.75Q16.5 -1 15.6 -0.55Q14.35 0.1 13.15 0.45Q12 0.8 9.9 0.8Q8.2 0.8 6.65 0.15Q5.1 -0.5 3.9 -1.65Q2.8 -2.8 2.1 -4.5Q1.45 -6.2 1.45 -8.05Q1.45 -10.95 2.65 -13Q3.9 -15.05 6.55 -16.25Q8.9 -17.3 12.1 -17.7Q15.3 -18.15 19 -18.35L19 -19.25Q19 -20.9 18.5 -21.9Q18 -22.95 17.1 -23.5Q16.2 -24.1 14.9 -24.3Q13.6 -24.5 12.2 -24.5Q10.6 -24.5 8.4 -23.95Q6.2 -23.45 4 -22.55L3.75 -22.55L3.75 -27.3Q5.05 -27.7 7.45 -28.15Q9.9 -28.6 12.25 -28.6Q15.15 -28.6 17.1 -28.15Q19.1 -27.7 20.65 -26.5Q22.2 -25.35 22.95 -23.5Q23.7 -21.7 23.7 -19.1L23.7 0L19 0L19 -2.95" />
</g>
<g id="PathID_14" transform="matrix(0.876177, -0.00166549, 0.00166549, 0.876177, 357.15, 192.95)" opacity="1">
</g>
<g id="PathID_15" transform="matrix(0.876177, -0.00166549, 0.00166549, 0.876177, 380.65, 192.9)" opacity="1">
<path style="fill:#B5E4F4;fill-opacity:1" d="M20.2 -7.6L20.2 -22.95Q18.4 -23.75 16.9 -24.1Q15.45 -24.5 13.95 -24.5Q10.4 -24.5 8.35 -21.85Q6.3 -19.25 6.3 -14.35Q6.3 -9.7 7.85 -7.25Q9.4 -4.85 12.9 -4.85Q14.75 -4.85 16.65 -5.55Q18.6 -6.3 20.2 -7.6M4.4 4.5L5.75 5.05Q6.7 5.4 7.9 5.65Q9.2 6 10.3 6.15Q11.4 6.35 12.7 6.35Q14.85 6.35 16.35 5.75Q17.9 5.2 18.75 4.2Q19.55 3.15 19.85 1.8Q20.2 0.45 20.2 -1.25L20.2 -3.7Q18.25 -2.05 16.4 -1.25Q14.6 -0.5 11.85 -0.5Q7.1 -0.5 4.25 -4.05Q1.45 -7.6 1.45 -14.25Q1.45 -17.7 2.4 -20.4Q3.4 -23.1 5.05 -24.95Q6.6 -26.75 8.75 -27.75Q10.9 -28.75 13.2 -28.75Q15.4 -28.75 16.95 -28.2Q18.55 -27.7 20.2 -26.75L20.45 -27.95L24.9 -27.95L24.9 -3.15Q24.9 3.95 21.8 7.25Q18.7 10.6 12.3 10.6Q10.25 10.6 8.1 10.25Q6 9.95 4.15 9.4L4.15 4.5L4.4 4.5" />
</g>
<g id="PathID_16" transform="matrix(0.876177, -0.00166549, 0.00166549, 0.876177, 380.65, 192.9)" opacity="1">
</g>
<g id="PathID_17" transform="matrix(0.876177, -0.00166549, 0.00166549, 0.876177, 405.4, 192.85)" opacity="1">
<path style="fill:#B5E4F4;fill-opacity:1" d="M15.5 0.65Q8.8 0.65 5.1 -3.1Q1.45 -6.85 1.45 -13.8Q1.45 -20.65 5 -24.7Q8.6 -28.75 14.35 -28.75Q16.95 -28.75 18.95 -27.95Q20.95 -27.2 22.45 -25.6Q23.95 -24 24.75 -21.7Q25.6 -19.4 25.6 -16.05L25.6 -13.5L6.25 -13.5Q6.25 -8.6 8.7 -6Q11.15 -3.45 15.45 -3.45Q17 -3.45 18.5 -3.8Q20 -4.15 21.2 -4.7Q22.45 -5.25 23.3 -5.8Q24.2 -6.35 24.8 -6.85L25.1 -6.85L25.1 -1.7L23 -0.85L20.8 -0.1Q19.45 0.25 18.3 0.45Q17.2 0.65 15.5 0.65M21 -17.1Q20.95 -19 20.55 -20.35Q20.15 -21.75 19.4 -22.7Q18.55 -23.75 17.25 -24.3Q16 -24.85 14.1 -24.85Q12.2 -24.85 10.9 -24.25Q9.6 -23.7 8.5 -22.65Q7.45 -21.55 6.9 -20.2Q6.4 -18.85 6.25 -17.1L21 -17.1" />
</g>
<g id="PathID_18" transform="matrix(0.876177, -0.00166549, 0.00166549, 0.876177, 405.4, 192.85)" opacity="1">
</g>
<g id="PathID_19" transform="matrix(0.876177, -0.00166549, 0.00166549, 0.876177, 429, 192.8)" opacity="1">
<path style="fill:#B5E4F4;fill-opacity:1" d="M18.2 -22.85L17.95 -22.85L16.8 -23L15.4 -23.05Q13.5 -23.05 11.6 -22.2Q9.75 -21.4 8.1 -19.75L8.1 0L3.4 0L3.4 -27.95L8.1 -27.95L8.1 -23.75Q10.65 -26.05 12.55 -27Q14.5 -27.95 16.3 -27.95L17.35 -27.9L18.2 -27.75L18.2 -22.85" />
</g>
<g id="PathID_20" transform="matrix(0.876177, -0.00166549, 0.00166549, 0.876177, 429, 192.8)" opacity="1">
</g>
<g id="PathID_21" transform="matrix(1, 0, 0, 1, 419.35, 139.6)" opacity="1">
<path style="fill:#4A7EBC;fill-opacity:1" d="M50.1 12.65Q54.35 19.45 54.95 27L55.3 30.45Q55.35 32.75 54.5 33.65Q53.95 34.2 52.75 31.8L51.4 28.8Q45.75 18.15 36.9 12.7Q31.45 9.3 23.25 7.75L18.95 7Q16.4 6.5 14.7 5.8Q21.85 3.95 29.15 4.5Q28.35 1.35 30.55 1.25Q32.35 1.15 34.8 2.7Q37.1 4.15 39.35 6.15Q39.1 3.35 41.25 4Q42.65 4.45 44.65 6.15Q47.75 8.85 50.1 12.65M46.7 34.35Q43 30.9 36.75 29.35L24.55 26.7Q17.35 24.7 14.05 20.5Q12.15 18.05 12.5 15.55Q12.55 14.95 11.65 14.45L10.15 13.7Q7.2 11.85 5.25 9.9Q0 4.85 0 0Q4.45 5.5 14.7 7.95L23.25 9.8Q28.2 10.9 31.3 12.25Q36.9 14.7 41.7 19.4Q46.1 23.7 49.35 29.45Q55.85 44.7 52.85 44.8Q52.55 44.8 51.7 42.3L50.6 39.2Q49.2 36.6 46.7 34.35" />
</g>
<g id="PathID_22" transform="matrix(1, 0, 0, 1, 419.35, 139.6)" opacity="1">
</g>
<g id="PathID_23" transform="matrix(1, 0, 0, 1, 133.5, 140.4)" opacity="1">
<path style="fill:#4A7EBC;fill-opacity:1" d="M51.3 8.7Q51.3 9.4 50.8 9.9L48.35 12.35Q47.85 12.9 47.15 12.9Q46.45 12.9 45.9 12.35L38.9 5.35Q38.4 4.85 38.4 4.15Q38.4 3.45 38.9 2.95L41.35 0.5Q41.85 0 42.55 0L42.6 0Q43.35 0 43.8 0.5L50.8 7.5Q51.3 8 51.3 8.7M47.15 8.2Q46.55 8.2 46.15 8.6Q45.7 9.05 45.7 9.6Q45.7 10.2 46.15 10.65Q46.55 11.05 47.15 11.05Q47.7 11.05 48.15 10.65Q48.55 10.2 48.55 9.6Q48.55 9.05 48.15 8.6Q47.7 8.2 47.15 8.2M42.3 23.4Q42.25 24.55 41.45 25.35Q40.7 26.1 39.55 26.2Q39.5 27.25 38.7 28.1Q37.95 28.85 36.8 28.95Q36.75 30 35.95 30.85Q35.2 31.6 34.05 31.7Q34 32.75 33.2 33.6Q32.4 34.4 31.25 34.45Q30.15 34.5 29.35 33.75L26.2 30.6L24.6 32.2Q24.05 32.7 23.3 32.65Q22.55 32.6 22 32.05Q21.45 31.5 21.4 30.7Q21.35 29.95 21.85 29.45Q21.3 29.95 20.55 29.9Q19.8 29.85 19.25 29.3Q18.7 28.75 18.65 27.95Q18.6 27.2 19.1 26.7Q18.55 27.2 17.8 27.15Q17.05 27.1 16.5 26.55Q15.95 26 15.9 25.2Q15.85 24.45 16.35 23.95Q15.8 24.45 15.05 24.4Q14.3 24.35 13.75 23.8Q13.2 23.25 13.15 22.5Q13.1 21.7 13.6 21.2L15.1 19.65L9.95 14.5L9.75 13.9L9.95 13.3Q10.2 13.05 10.6 13.05Q10.95 13.05 11.2 13.3L16.35 18.45Q16.9 18.05 17.6 18.15Q18.3 18.25 18.8 18.75Q19.35 19.3 19.4 20.05Q19.45 20.85 19.05 21.35Q19.5 20.8 20.25 20.85Q21 20.9 21.55 21.5Q22.1 22.05 22.15 22.8Q22.2 23.6 21.8 24.1Q22.25 23.55 23 23.6Q23.75 23.65 24.3 24.25Q24.85 24.8 24.9 25.55Q24.95 26.3 24.45 26.8Q25 26.3 25.75 26.35Q26.5 26.4 27.05 26.95Q27.55 27.45 27.65 28.15Q27.75 28.8 27.4 29.35L30.6 32.55L31.25 32.75L31.95 32.35L32.35 31.65L32.1 31L29.5 28.4L29.25 27.8Q29.25 27.4 29.5 27.15Q29.75 26.9 30.1 26.9L30.7 27.15L33.35 29.75L34 30L34.7 29.6L35.1 28.9L34.85 28.25L32.25 25.65L32 25.05Q32 24.65 32.25 24.4Q32.5 24.15 32.85 24.15L33.45 24.4L36.1 27L36.75 27.25L37.45 26.9Q38.2 26.1 37.6 25.5L35 22.9L34.75 22.3Q34.75 21.9 35 21.65Q35.25 21.4 35.6 21.4L36.2 21.65L38.85 24.3Q39.1 24.55 39.5 24.5L40.2 24.15Q40.95 23.35 40.35 22.75L29.25 11.65Q28.6 11 27.55 12L26.75 13.05L25.6 15.25L25.05 16Q23.65 17.35 21.9 16.95Q20.35 16.65 19.65 15.2Q19.15 14.1 19.45 13.45L23 5.1L23.7 4.15Q24.5 3.35 25.65 2.9Q27.45 2.2 29.5 2.85L37.45 5.35L37.8 5.55L45.75 13.5L46 14.1L45.75 14.7L40.25 20.2L41.6 21.55Q42.35 22.3 42.3 23.4M44.8 40.45L44.8 58.45Q44.8 59.6 44 60.45Q43.15 61.25 42 61.25L35.2 61.25Q34.05 61.25 33.25 60.45Q32.45 59.6 32.45 58.45L32.45 40.45Q32.45 39.3 33.25 38.5Q34.05 37.7 35.2 37.7L42 37.7Q43.15 37.7 44 38.5Q44.8 39.3 44.8 40.45M60.2 30.15Q61 31 61 32.15L61 58.45Q61 59.6 60.2 60.45Q59.4 61.25 58.25 61.25L51.45 61.25Q50.3 61.25 49.45 60.45Q48.65 59.6 48.65 58.45L48.65 32.15Q48.65 31 49.45 30.15Q50.3 29.35 51.45 29.35L58.25 29.35Q59.4 29.35 60.2 30.15M12.35 32.15L12.35 58.45Q12.35 59.6 11.55 60.45Q10.75 61.25 9.6 61.25L2.8 61.25Q1.65 61.25 0.8 60.45Q0 59.6 0 58.45L0 32.15Q0 31 0.8 30.15Q1.65 29.35 2.8 29.35L9.6 29.35Q10.75 29.35 11.55 30.15Q12.35 31 12.35 32.15M17.05 38.5Q17.85 37.7 19 37.7L25.8 37.7Q26.95 37.7 27.75 38.5Q28.55 39.3 28.55 40.45L28.55 58.45Q28.55 59.6 27.75 60.45Q26.95 61.25 25.8 61.25L19 61.25Q17.85 61.25 17.05 60.45Q16.25 59.6 16.25 58.45L16.25 40.45Q16.25 39.3 17.05 38.5" />
</g>
<g id="PathID_24" transform="matrix(1, 0, 0, 1, 133.5, 140.4)" opacity="1">
</g>
</svg>
